<?xml version="1.0" standalone="no"?>
<!DOCTYPE svg PUBLIC "-//W3C//DTD SVG 20010904//EN"
 "http://www.w3.org/TR/2001/REC-SVG-20010904/DTD/svg10.dtd">
<svg version="1.0" xmlns="http://www.w3.org/2000/svg"
 width="700.000000pt" height="512.000000pt" viewBox="0 0 700.000000 512.000000"
 preserveAspectRatio="xMidYMid meet">

<g transform="translate(0.000000,512.000000) scale(0.100000,-0.100000)"
fill="#000000" stroke="none">
<path d="M0 2560 l0 -2560 3500 0 3500 0 0 2560 0 2560 -3500 0 -3500 0 0
-2560z m5950 -10 l0 -610 -2440 0 -2440 0 0 610 0 610 2440 0 2440 0 0 -610z"/>
<path d="M1110 2550 l0 -570 440 0 440 0 0 570 0 570 -440 0 -440 0 0 -570z
m770 0 l0 -480 -280 0 -280 0 0 188 0 187 -28 35 c-78 95 -93 152 -99 368 l-6
182 347 0 346 0 0 -480z"/>
<path d="M1233 2828 c5 -170 12 -205 56 -273 l26 -40 3 193 2 192 215 0 215 0
0 -350 0 -350 -150 0 -150 0 0 83 0 83 -45 22 -45 22 0 -150 0 -150 245 0 245
0 0 440 0 440 -311 0 -312 0 6 -162z"/>
<path d="M1360 2661 l0 -200 43 -25 42 -26 3 180 2 180 85 0 85 0 0 -221 0
-220 -47 6 c-27 4 -56 9 -65 12 -16 4 -18 -3 -18 -51 l0 -56 115 0 115 0 0
310 0 310 -180 0 -180 0 0 -199z"/>
<path d="M1490 2561 c0 -166 0 -169 23 -175 12 -3 34 -6 50 -6 l27 0 0 175 0
175 -50 0 -50 0 0 -169z"/>
<path d="M2677 2942 c-26 -28 -22 -78 7 -98 68 -44 137 44 80 101 -21 21 -67
19 -87 -3z"/>
<path d="M2106 2928 c-14 -19 -16 -68 -16 -328 0 -330 3 -350 53 -350 52 1 52
-3 55 315 l3 295 104 0 c96 0 105 -2 119 -22 16 -23 22 -120 10 -164 -8 -30
-45 -44 -118 -44 -49 0 -65 -4 -70 -16 -17 -43 9 -74 62 -74 37 0 37 -1 111
-128 84 -144 97 -162 121 -162 16 0 60 39 60 54 0 4 -31 59 -70 122 -38 63
-70 117 -70 120 0 4 17 21 38 39 l37 33 3 119 c4 118 3 120 -24 153 -45 52
-75 60 -243 60 -144 0 -151 -1 -165 -22z"/>
<path d="M3222 2938 c-7 -7 -12 -42 -12 -85 l0 -73 -111 0 c-96 0 -116 -3
-146 -21 -57 -36 -63 -58 -63 -244 0 -230 9 -244 172 -253 86 -4 87 -4 99 21
19 43 -1 57 -80 57 -39 0 -72 5 -79 12 -8 8 -12 59 -12 164 0 190 -4 184 126
184 l94 0 0 -209 c0 -223 4 -241 50 -241 10 0 26 7 34 16 14 13 16 58 16 334
0 175 -3 325 -6 334 -7 19 -64 22 -82 4z"/>
<path d="M4045 2936 c-16 -7 -41 -26 -55 -41 -22 -24 -25 -37 -28 -119 -7
-171 30 -205 220 -206 135 0 138 -2 138 -114 0 -50 -5 -87 -12 -94 -8 -8 -48
-12 -114 -12 -95 0 -104 2 -118 22 -9 12 -16 42 -16 65 0 37 -4 45 -25 55 -19
8 -31 8 -50 0 -23 -11 -25 -17 -25 -74 0 -76 21 -117 73 -141 27 -13 64 -17
162 -17 146 0 189 15 219 76 23 49 22 197 -2 244 -29 59 -85 80 -214 80 -99 0
-108 2 -122 22 -22 32 -21 129 2 157 16 20 25 22 122 19 117 -3 111 1 125 -90
5 -30 11 -39 31 -44 14 -4 37 -1 51 5 24 11 25 15 21 71 -5 69 -27 106 -79
132 -43 23 -256 25 -304 4z"/>
<path d="M5642 2907 c-6 -7 -12 -37 -14 -67 -3 -52 -4 -55 -33 -60 -53 -9 -43
-80 11 -80 l24 0 0 -183 c0 -200 3 -213 60 -242 16 -8 52 -15 79 -15 46 0 51
2 57 25 8 34 -11 55 -52 55 -23 0 -37 6 -44 19 -6 11 -10 89 -10 180 l0 161
45 0 c49 0 72 23 60 60 -5 16 -15 20 -56 20 l-49 0 0 58 c0 32 -5 63 -12 70
-16 16 -53 15 -66 -1z"/>
<path d="M2686 2774 c-14 -13 -16 -50 -16 -254 0 -204 2 -241 16 -254 18 -19
38 -20 65 -6 18 10 19 24 19 260 0 236 -1 250 -19 260 -27 14 -47 13 -65 -6z"/>
<path d="M3479 2757 c-52 -35 -61 -76 -57 -257 3 -177 11 -197 79 -224 58 -23
211 -21 266 3 49 23 75 66 71 119 -3 36 -4 37 -43 37 -37 0 -40 -2 -50 -38 -6
-21 -17 -42 -25 -47 -25 -16 -153 -12 -178 6 -21 14 -22 22 -22 164 0 183 -2
180 114 180 99 0 108 -7 110 -82 l1 -53 -85 -5 c-85 -5 -85 -5 -88 -34 -2 -16
2 -32 10 -37 7 -5 58 -9 113 -9 139 0 145 5 145 118 0 99 -11 126 -59 159 -31
21 -46 23 -151 23 -105 0 -120 -2 -151 -23z"/>
<path d="M4571 2766 c-8 -9 -11 -101 -9 -317 l3 -304 40 0 40 0 3 278 2 277
100 0 c131 0 130 2 130 -182 0 -171 -4 -178 -105 -178 -71 0 -83 -9 -71 -55 6
-24 10 -25 74 -25 89 0 135 14 166 51 26 30 26 32 26 204 0 196 -5 217 -62
246 -32 16 -59 19 -181 19 -110 0 -147 -3 -156 -14z"/>
<path d="M5149 2760 c-57 -30 -69 -73 -69 -243 0 -157 10 -192 63 -231 23 -17
46 -22 132 -24 87 -3 110 -1 149 17 68 30 76 56 76 243 0 174 -10 208 -70 240
-51 26 -230 25 -281 -2z m235 -76 c13 -13 16 -42 16 -164 0 -177 -2 -180 -110
-180 -108 0 -110 3 -110 177 0 183 0 183 111 183 57 0 82 -4 93 -16z"/>
</g>
</svg>
